# Blender v2.79 (sub 0) OBJ File: ''
# www.blender.org
mtllib sphere.mtl
o Сфера
v 0.000000 0.923880 -0.382683
v 0.000000 -1.000000 -0.000000
v -0.000000 1.000000 -0.000000
v 0.270598 0.923880 -0.270598
v 0.500000 0.707107 -0.500000
v 0.653281 0.382683 -0.653282
v 0.707107 -0.000000 -0.707107
v 0.653281 -0.382684 -0.653282
v 0.500000 -0.707107 -0.500000
v 0.270598 -0.923880 -0.270598
v 0.382683 0.923880 -0.000000
v 0.707107 0.707107 -0.000000
v 0.923879 0.382683 -0.000000
v 1.000000 -0.000000 -0.000000
v 0.923879 -0.382684 -0.000000
v 0.707107 -0.707107 -0.000000
v 0.382683 -0.923880 -0.000000
v 0.270598 0.923880 0.270598
v 0.500000 0.707107 0.500000
v 0.653281 0.382683 0.653281
v 0.707107 -0.000000 0.707106
v 0.653281 -0.382684 0.653281
v 0.500000 -0.707107 0.500000
v 0.270598 -0.923880 0.270598
v 0.000000 0.923880 0.382683
v 0.000000 0.707107 0.707106
v 0.000000 0.382683 0.923879
v 0.000000 -0.000000 1.000000
v 0.000000 -0.382684 0.923879
v 0.000000 -0.707107 0.707106
v 0.000000 -0.923880 0.382683
v -0.270598 0.923880 0.270598
v -0.500000 0.707107 0.500000
v -0.653281 0.382683 0.653281
v -0.707107 -0.000000 0.707106
v -0.653281 -0.382684 0.653281
v -0.500000 -0.707107 0.500000
v -0.270598 -0.923880 0.270598
v -0.382683 0.923880 -0.000000
v -0.707107 0.707107 -0.000000
v -0.923879 0.382683 -0.000000
v -1.000000 -0.000000 -0.000000
v -0.923879 -0.382684 -0.000000
v -0.707107 -0.707107 -0.000000
v -0.382683 -0.923880 -0.000000
v -0.270598 0.923880 -0.270598
v -0.500000 0.707107 -0.500000
v -0.653281 0.382683 -0.653281
v -0.707107 -0.000000 -0.707107
v -0.653281 -0.382684 -0.653281
v -0.500000 -0.707107 -0.500000
v -0.270598 -0.923880 -0.270598
v -0.000000 0.707107 -0.707107
v -0.000000 0.382683 -0.923879
v 0.000000 -0.000000 -1.000000
v -0.000000 -0.382684 -0.923879
v -0.000000 -0.707107 -0.707107
v -0.000000 -0.923880 -0.382683
vn 0.0805 0.9776 -0.1945
vn 0.0805 -0.9776 -0.1945
vn 0.3256 -0.5253 -0.7862
vn 0.3764 0.1807 -0.9087
vn 0.2243 0.8103 -0.5414
vn 0.2243 -0.8103 -0.5414
vn 0.3764 -0.1807 -0.9087
vn 0.3256 0.5253 -0.7862
vn 0.9087 0.1807 -0.3764
vn 0.5414 0.8103 -0.2243
vn 0.5414 -0.8103 -0.2243
vn 0.9087 -0.1807 -0.3764
vn 0.7862 0.5253 -0.3256
vn 0.1945 0.9776 -0.0805
vn 0.1945 -0.9776 -0.0805
vn 0.7862 -0.5253 -0.3256
vn 0.5414 -0.8103 0.2243
vn 0.9087 -0.1807 0.3764
vn 0.7862 0.5253 0.3256
vn 0.1945 0.9776 0.0805
vn 0.1945 -0.9776 0.0805
vn 0.7862 -0.5253 0.3256
vn 0.9087 0.1807 0.3764
vn 0.5414 0.8103 0.2243
vn 0.3256 0.5253 0.7862
vn 0.0805 0.9776 0.1945
vn 0.0805 -0.9776 0.1945
vn 0.3256 -0.5253 0.7862
vn 0.3764 0.1807 0.9087
vn 0.2243 0.8103 0.5414
vn 0.2243 -0.8103 0.5414
vn 0.3764 -0.1807 0.9087
vn -0.0805 -0.9776 0.1945
vn -0.3256 -0.5253 0.7862
vn -0.3764 0.1807 0.9087
vn -0.2243 0.8103 0.5414
vn -0.2243 -0.8103 0.5414
vn -0.3764 -0.1807 0.9087
vn -0.3256 0.5253 0.7862
vn -0.0805 0.9776 0.1945
vn -0.5414 0.8103 0.2243
vn -0.5414 -0.8103 0.2243
vn -0.9087 -0.1807 0.3764
vn -0.7862 0.5253 0.3256
vn -0.1945 0.9776 0.0805
vn -0.1945 -0.9776 0.0805
vn -0.7862 -0.5253 0.3256
vn -0.9087 0.1807 0.3764
vn -0.5414 -0.8103 -0.2243
vn -0.9087 -0.1807 -0.3764
vn -0.7862 0.5253 -0.3256
vn -0.1945 0.9776 -0.0805
vn -0.1945 -0.9776 -0.0805
vn -0.7862 -0.5253 -0.3256
vn -0.9087 0.1807 -0.3764
vn -0.5414 0.8103 -0.2243
vn -0.0805 0.9776 -0.1945
vn -0.0805 -0.9776 -0.1945
vn -0.3256 -0.5253 -0.7862
vn -0.3764 0.1807 -0.9087
vn -0.2243 0.8103 -0.5414
vn -0.2243 -0.8103 -0.5414
vn -0.3764 -0.1807 -0.9087
vn -0.3256 0.5253 -0.7862
usemtl None
s off
f 1//1 3//1 4//1
f 2//2 58//2 10//2
f 56//3 9//3 57//3
f 55//4 6//4 7//4
f 53//5 4//5 5//5
f 57//6 10//6 58//6
f 55//7 8//7 56//7
f 53//8 6//8 54//8
f 7//9 13//9 14//9
f 4//10 12//10 5//10
f 10//11 16//11 17//11
f 7//12 15//12 8//12
f 5//13 13//13 6//13
f 4//14 3//14 11//14
f 2//15 10//15 17//15
f 8//16 16//16 9//16
f 16//17 24//17 17//17
f 14//18 22//18 15//18
f 12//19 20//19 13//19
f 11//20 3//20 18//20
f 2//21 17//21 24//21
f 16//22 22//22 23//22
f 14//23 20//23 21//23
f 11//24 19//24 12//24
f 19//25 27//25 20//25
f 18//26 3//26 25//26
f 2//27 24//27 31//27
f 23//28 29//28 30//28
f 21//29 27//29 28//29
f 18//30 26//30 19//30
f 23//31 31//31 24//31
f 21//32 29//32 22//32
f 2//33 31//33 38//33
f 30//34 36//34 37//34
f 28//35 34//35 35//35
f 25//36 33//36 26//36
f 30//37 38//37 31//37
f 28//38 36//38 29//38
f 26//39 34//39 27//39
f 25//40 3//40 32//40
f 32//41 40//41 33//41
f 37//42 45//42 38//42
f 35//43 43//43 36//43
f 33//44 41//44 34//44
f 32//45 3//45 39//45
f 2//46 38//46 45//46
f 37//47 43//47 44//47
f 35//48 41//48 42//48
f 44//49 52//49 45//49
f 42//50 50//50 43//50
f 40//51 48//51 41//51
f 39//52 3//52 46//52
f 2//53 45//53 52//53
f 44//54 50//54 51//54
f 42//55 48//55 49//55
f 39//56 47//56 40//56
f 46//57 3//57 1//57
f 2//58 52//58 58//58
f 51//59 56//59 57//59
f 49//60 54//60 55//60
f 46//61 53//61 47//61
f 52//62 57//62 58//62
f 49//63 56//63 50//63
f 47//64 54//64 48//64
f 56//3 8//3 9//3
f 55//4 54//4 6//4
f 53//5 1//5 4//5
f 57//6 9//6 10//6
f 55//7 7//7 8//7
f 53//8 5//8 6//8
f 7//9 6//9 13//9
f 4//10 11//10 12//10
f 10//11 9//11 16//11
f 7//12 14//12 15//12
f 5//13 12//13 13//13
f 8//16 15//16 16//16
f 16//17 23//17 24//17
f 14//18 21//18 22//18
f 12//19 19//19 20//19
f 16//22 15//22 22//22
f 14//23 13//23 20//23
f 11//24 18//24 19//24
f 19//25 26//25 27//25
f 23//28 22//28 29//28
f 21//29 20//29 27//29
f 18//30 25//30 26//30
f 23//31 30//31 31//31
f 21//32 28//32 29//32
f 30//34 29//34 36//34
f 28//35 27//35 34//35
f 25//36 32//36 33//36
f 30//37 37//37 38//37
f 28//38 35//38 36//38
f 26//39 33//39 34//39
f 32//41 39//41 40//41
f 37//42 44//42 45//42
f 35//43 42//43 43//43
f 33//44 40//44 41//44
f 37//47 36//47 43//47
f 35//48 34//48 41//48
f 44//49 51//49 52//49
f 42//50 49//50 50//50
f 40//51 47//51 48//51
f 44//54 43//54 50//54
f 42//55 41//55 48//55
f 39//56 46//56 47//56
f 51//59 50//59 56//59
f 49//60 48//60 54//60
f 46//61 1//61 53//61
f 52//62 51//62 57//62
f 49//63 55//63 56//63
f 47//64 53//64 54//64
