# Blender v2.79 (sub 0) OBJ File: 'body.blend'
# www.blender.org
mtllib tor.mtl
o Torus
v 1.250000 0.000000 0.000000
v 1.176777 0.176777 0.000000
v 1.000000 0.250000 0.000000
v 0.823223 0.176777 0.000000
v 0.750000 0.000000 0.000000
v 0.823223 -0.176777 0.000000
v 1.000000 -0.250000 0.000000
v 1.176777 -0.176777 0.000000
v 1.011271 0.000000 -0.734732
v 0.952032 0.176777 -0.691692
v 0.809017 0.250000 -0.587785
v 0.666002 0.176777 -0.483878
v 0.606763 0.000000 -0.440839
v 0.666002 -0.176777 -0.483878
v 0.809017 -0.250000 -0.587785
v 0.952032 -0.176777 -0.691692
v 0.386271 0.000000 -1.188821
v 0.363644 0.176777 -1.119181
v 0.309017 0.250000 -0.951056
v 0.254390 0.176777 -0.782932
v 0.231763 0.000000 -0.713292
v 0.254390 -0.176777 -0.782932
v 0.309017 -0.250000 -0.951056
v 0.363644 -0.176777 -1.119181
v -0.386271 0.000000 -1.188821
v -0.363644 0.176777 -1.119181
v -0.309017 0.250000 -0.951056
v -0.254390 0.176777 -0.782932
v -0.231763 0.000000 -0.713292
v -0.254390 -0.176777 -0.782932
v -0.309017 -0.250000 -0.951056
v -0.363644 -0.176777 -1.119181
v -1.011271 0.000000 -0.734731
v -0.952033 0.176777 -0.691692
v -0.809017 0.250000 -0.587785
v -0.666002 0.176777 -0.483878
v -0.606763 0.000000 -0.440839
v -0.666002 -0.176777 -0.483878
v -0.809017 -0.250000 -0.587785
v -0.952033 -0.176777 -0.691692
v -1.250000 0.000000 -0.000000
v -1.176777 0.176777 -0.000000
v -1.000000 0.250000 -0.000000
v -0.823223 0.176777 -0.000000
v -0.750000 0.000000 -0.000000
v -0.823223 -0.176777 -0.000000
v -1.000000 -0.250000 -0.000000
v -1.176777 -0.176777 -0.000000
v -1.011271 0.000000 0.734731
v -0.952033 0.176777 0.691692
v -0.809017 0.250000 0.587785
v -0.666002 0.176777 0.483878
v -0.606763 0.000000 0.440839
v -0.666002 -0.176777 0.483878
v -0.809017 -0.250000 0.587785
v -0.952033 -0.176777 0.691692
v -0.386271 0.000000 1.188821
v -0.363644 0.176777 1.119181
v -0.309017 0.250000 0.951056
v -0.254390 0.176777 0.782932
v -0.231763 0.000000 0.713292
v -0.254390 -0.176777 0.782932
v -0.309017 -0.250000 0.951056
v -0.363644 -0.176777 1.119181
v 0.386271 0.000000 1.188821
v 0.363644 0.176777 1.119181
v 0.309017 0.250000 0.951056
v 0.254390 0.176777 0.782932
v 0.231763 0.000000 0.713292
v 0.254390 -0.176777 0.782932
v 0.309017 -0.250000 0.951056
v 0.363644 -0.176777 1.119181
v 1.011271 0.000000 0.734732
v 0.952032 0.176777 0.691692
v 0.809017 0.250000 0.587786
v 0.666001 0.176777 0.483879
v 0.606763 0.000000 0.440839
v 0.666001 -0.176777 0.483879
v 0.809017 -0.250000 0.587786
v 0.952032 -0.176777 0.691692
vn 0.8849 0.3665 -0.2875
vn 0.3798 0.9168 -0.1234
vn -0.3798 0.9168 0.1234
vn -0.8849 0.3665 0.2875
vn -0.8849 -0.3665 0.2875
vn -0.3798 -0.9168 0.1234
vn 0.3798 -0.9168 -0.1234
vn 0.8849 -0.3665 -0.2875
vn 0.5469 0.3665 -0.7527
vn 0.2347 0.9168 -0.3230
vn -0.2347 0.9168 0.3230
vn -0.5469 0.3665 0.7527
vn -0.5469 -0.3665 0.7527
vn -0.2347 -0.9168 0.3230
vn 0.2347 -0.9168 -0.3230
vn 0.5469 -0.3665 -0.7527
vn 0.0000 0.3665 -0.9304
vn 0.0000 0.9168 -0.3993
vn 0.0000 0.9168 0.3993
vn 0.0000 0.3665 0.9304
vn 0.0000 -0.3665 0.9304
vn 0.0000 -0.9168 0.3993
vn 0.0000 -0.9168 -0.3993
vn 0.0000 -0.3665 -0.9304
vn -0.5469 0.3665 -0.7527
vn -0.2347 0.9168 -0.3230
vn 0.2347 0.9168 0.3230
vn 0.5469 0.3665 0.7527
vn 0.5469 -0.3665 0.7527
vn 0.2347 -0.9168 0.3230
vn -0.2347 -0.9168 -0.3230
vn -0.5469 -0.3665 -0.7527
vn -0.8849 0.3665 -0.2875
vn -0.3798 0.9168 -0.1234
vn 0.3798 0.9168 0.1234
vn 0.8849 0.3665 0.2875
vn 0.8849 -0.3665 0.2875
vn 0.3798 -0.9168 0.1234
vn -0.3798 -0.9168 -0.1234
vn -0.8849 -0.3665 -0.2875
usemtl None
s off
f 9//1 2//1 1//1
f 10//2 3//2 2//2
f 11//3 4//3 3//3
f 12//4 5//4 4//4
f 13//5 6//5 5//5
f 14//6 7//6 6//6
f 7//7 16//7 8//7
f 16//8 1//8 8//8
f 9//9 18//9 10//9
f 18//10 11//10 10//10
f 11//11 20//11 12//11
f 12//12 21//12 13//12
f 21//13 14//13 13//13
f 22//14 15//14 14//14
f 15//15 24//15 16//15
f 24//16 9//16 16//16
f 25//17 18//17 17//17
f 26//18 19//18 18//18
f 27//19 20//19 19//19
f 28//20 21//20 20//20
f 29//21 22//21 21//21
f 30//22 23//22 22//22
f 23//23 32//23 24//23
f 32//24 17//24 24//24
f 25//25 34//25 26//25
f 26//26 35//26 27//26
f 27//27 36//27 28//27
f 28//28 37//28 29//28
f 37//29 30//29 29//29
f 38//30 31//30 30//30
f 39//31 32//31 31//31
f 40//32 25//32 32//32
f 33//33 42//33 34//33
f 42//34 35//34 34//34
f 43//35 36//35 35//35
f 44//36 37//36 36//36
f 45//37 38//37 37//37
f 38//38 47//38 39//38
f 39//39 48//39 40//39
f 48//40 33//40 40//40
f 49//4 42//4 41//4
f 50//3 43//3 42//3
f 51//2 44//2 43//2
f 44//1 53//1 45//1
f 53//8 46//8 45//8
f 54//7 47//7 46//7
f 55//6 48//6 47//6
f 56//5 41//5 48//5
f 57//12 50//12 49//12
f 58//11 51//11 50//11
f 59//10 52//10 51//10
f 60//9 53//9 52//9
f 53//16 62//16 54//16
f 54//15 63//15 55//15
f 55//14 64//14 56//14
f 56//13 57//13 49//13
f 65//20 58//20 57//20
f 58//19 67//19 59//19
f 67//18 60//18 59//18
f 68//17 61//17 60//17
f 69//24 62//24 61//24
f 70//23 63//23 62//23
f 71//22 64//22 63//22
f 72//21 57//21 64//21
f 73//28 66//28 65//28
f 66//27 75//27 67//27
f 67//26 76//26 68//26
f 76//25 69//25 68//25
f 69//32 78//32 70//32
f 78//31 71//31 70//31
f 79//30 72//30 71//30
f 72//29 73//29 65//29
f 1//36 74//36 73//36
f 74//35 3//35 75//35
f 75//34 4//34 76//34
f 4//33 77//33 76//33
f 77//40 6//40 78//40
f 6//39 79//39 78//39
f 7//38 80//38 79//38
f 8//37 73//37 80//37
f 9//1 10//1 2//1
f 10//2 11//2 3//2
f 11//3 12//3 4//3
f 12//4 13//4 5//4
f 13//5 14//5 6//5
f 14//6 15//6 7//6
f 7//7 15//7 16//7
f 16//8 9//8 1//8
f 9//9 17//9 18//9
f 18//10 19//10 11//10
f 11//11 19//11 20//11
f 12//12 20//12 21//12
f 21//13 22//13 14//13
f 22//14 23//14 15//14
f 15//15 23//15 24//15
f 24//16 17//16 9//16
f 25//17 26//17 18//17
f 26//18 27//18 19//18
f 27//19 28//19 20//19
f 28//20 29//20 21//20
f 29//21 30//21 22//21
f 30//22 31//22 23//22
f 23//23 31//23 32//23
f 32//24 25//24 17//24
f 25//25 33//25 34//25
f 26//26 34//26 35//26
f 27//27 35//27 36//27
f 28//28 36//28 37//28
f 37//29 38//29 30//29
f 38//30 39//30 31//30
f 39//31 40//31 32//31
f 40//32 33//32 25//32
f 33//33 41//33 42//33
f 42//34 43//34 35//34
f 43//35 44//35 36//35
f 44//36 45//36 37//36
f 45//37 46//37 38//37
f 38//38 46//38 47//38
f 39//39 47//39 48//39
f 48//40 41//40 33//40
f 49//4 50//4 42//4
f 50//3 51//3 43//3
f 51//2 52//2 44//2
f 44//1 52//1 53//1
f 53//8 54//8 46//8
f 54//7 55//7 47//7
f 55//6 56//6 48//6
f 56//5 49//5 41//5
f 57//12 58//12 50//12
f 58//11 59//11 51//11
f 59//10 60//10 52//10
f 60//9 61//9 53//9
f 53//16 61//16 62//16
f 54//15 62//15 63//15
f 55//14 63//14 64//14
f 56//13 64//13 57//13
f 65//20 66//20 58//20
f 58//19 66//19 67//19
f 67//18 68//18 60//18
f 68//17 69//17 61//17
f 69//24 70//24 62//24
f 70//23 71//23 63//23
f 71//22 72//22 64//22
f 72//21 65//21 57//21
f 73//28 74//28 66//28
f 66//27 74//27 75//27
f 67//26 75//26 76//26
f 76//25 77//25 69//25
f 69//32 77//32 78//32
f 78//31 79//31 71//31
f 79//30 80//30 72//30
f 72//29 80//29 73//29
f 1//36 2//36 74//36
f 74//35 2//35 3//35
f 75//34 3//34 4//34
f 4//33 5//33 77//33
f 77//40 5//40 6//40
f 6//39 7//39 79//39
f 7//38 8//38 80//38
f 8//37 1//37 73//37
